<svg id="Layer_1" enable-background="new 0 0 510.938 510.938" height="512" viewBox="0 0 510.938 510.938" width="512" xmlns="http://www.w3.org/2000/svg"><g><g><path d="m473.438 456.689h-435.938c-16.569 0-30-13.431-30-30v-239.875c0-16.569 13.431-30 30-30h435.938c16.569 0 30 13.431 30 30v239.875c0 16.568-13.432 30-30 30z" fill="#2f94f6"/><path d="m473.438 156.814h-20c16.569 0 30 13.431 30 30v239.875c0 16.569-13.431 30-30 30h20c16.569 0 30-13.431 30-30v-239.875c0-16.569-13.432-30-30-30z" fill="#006ef2"/><path d="m274.516 73.361c0 10.649-8.633 19.281-19.281 19.281-25.549-.945-25.542-37.621 0-38.563 10.648.001 19.281 8.633 19.281 19.282z" fill="#9cc8e4"/><path d="m238.17 354.004c0 22.766-18.455 41.221-41.221 41.221-54.62-2.021-54.606-80.43.001-82.443 22.765.001 41.22 18.456 41.22 41.222z" fill="#fff"/><path d="m196.949 312.783c-3.449 0-6.798.43-10 1.228 41.384 10.732 41.357 69.271 0 79.986 25.483 6.699 51.598-13.559 51.221-39.993 0-22.766-18.455-41.221-41.221-41.221z" fill="#c2d3dd"/><path d="m349.887 354.004c0 22.766-18.455 41.221-41.221 41.221-54.62-2.021-54.606-80.43.001-82.443 22.765.001 41.22 18.456 41.22 41.222z" fill="#fff"/><path d="m308.666 312.783c-3.45 0-6.798.43-10 1.228 41.384 10.732 41.357 69.27 0 79.986 25.483 6.699 51.598-13.559 51.221-39.993 0-22.766-18.455-41.221-41.221-41.221z" fill="#c2d3dd"/></g><g><path d="m473.438 149.314h-35.324l-156.11-76.419c-1.881-35.014-51.97-34.786-53.545.232l-155.635 76.187h-35.324c-20.678 0-37.5 16.822-37.5 37.5v239.875c0 20.678 16.822 37.5 37.5 37.5h307.969v-15h-307.969c-12.407 0-22.5-10.093-22.5-22.5v-239.875c0-12.407 10.093-22.5 22.5-22.5h98.094v-15h-28.653l125.734-61.549c10.257 16.475 35.111 16.367 45.232-.175l126.09 61.724h-253.528v15h322.969c12.407 0 22.5 10.093 22.5 22.5v239.875c0 12.407-10.093 22.5-22.5 22.5h-112.969v15h112.969c20.678 0 37.5-16.822 37.5-37.5v-239.875c0-20.678-16.823-37.5-37.5-37.5zm-218.204-64.172c-6.496 0-11.781-5.285-11.781-11.781.592-15.608 22.972-15.604 23.563 0 0 6.496-5.286 11.781-11.782 11.781z"/><path d="m30.469 179.314h15.125v15h-15.125z"/><path d="m464.906 179.314h15.125v15h-15.125z"/><path d="m30.469 419.314h15.125v15h-15.125z"/><path d="m464.906 419.314h15.125v15h-15.125z"/><path d="m378.909 261.06-31.828-50.653-14.529-.003v79.441h15v-50.494l31.829 50.654h14.528v-79.222h-15z"/><path d="m233.759 289.749h14.166l12.554-45.575 9.213 47.111 14.721-2.879-15.329-78.382-14.773.056-13.664 49.607-14.419-49.64h-14.768l-14.121 78.47 14.763 2.656 8.443-46.916z"/><path d="m302.552 210.783h15v79.062h-15z"/><path d="m408.933 250.65c1.318 50.684 76.305 56.394 76.239 0v-7.5h-37.164v15h21.396c-5.285 28.935-45.495 19.888-45.472-7.5-.262-20.013 23.13-32.444 39.544-21.039l8.397-12.43c-26.131-18.165-63.355 1.615-62.94 33.469z"/><path d="m89.16 282.591c1.211-1.079 2.364-2.268 3.425-3.533l-11.492-9.64c-.596.71-1.239 1.374-1.91 1.972-15.105 12.54-39.068-1.748-38.417-20.74-.263-20.012 23.13-32.444 39.544-21.039l8.397-12.43c-26.132-18.16-63.356 1.61-62.942 33.469-.834 31.721 38.901 53.213 63.395 31.941z"/><path d="m182.544 250.65c0-22.259-18.108-40.367-40.367-40.367-53.479 2.029-53.465 78.712.001 80.734 22.258 0 40.366-18.109 40.366-40.367zm-65.734 0c0-13.987 11.38-25.367 25.367-25.367 33.606 1.275 33.597 49.464 0 50.734-13.987 0-25.367-11.38-25.367-25.367z"/><path d="m372.731 305.436v97.284h15v-69.304l42.852 69.04h15.289v-96.673h-15v68.694l-42.852-69.039z"/><path d="m101.295 387.725c-8.973 0-17.635-3.647-23.171-9.757l-11.116 10.072c18.013 20.714 59.6 20.699 66.217-9.365 2.826-15.826-9.603-26.42-22.175-31.058-10.585-3.904-20.404-8.167-22.911-9.268-2.579-1.897-3.831-4.924-3.361-8.198.594-4.139 3.781-7.464 8.525-8.893 13.219-3.978 25.161 5.668 25.28 5.766l9.621-11.508c-.73-.614-18.141-14.972-39.228-8.62-10.324 3.11-17.622 11.205-19.046 21.124-1.327 9.24 2.675 18.126 10.443 23.19l.498.325.542.242c.474.211 11.745 5.229 24.444 9.913 9.041 3.334 13.633 8.564 12.6 14.349-1.354 7.59-9.853 11.686-17.162 11.686z"/><path d="m196.949 402.725c24.315 0 44.525-17.905 48.143-41.221h15.432c3.618 23.317 23.828 41.221 48.143 41.221 64.547-2.45 64.528-95.003-.001-97.442-24.314 0-44.524 17.905-48.142 41.221h-15.432c-10.64-58.672-95.204-52.551-96.864 7.501 0 26.864 21.856 48.72 48.721 48.72zm111.717-82.442c18.594 0 33.721 15.127 33.721 33.721-1.696 44.674-65.754 44.662-67.442 0 0-18.594 15.127-33.721 33.721-33.721zm-111.717 0c18.594 0 33.722 15.127 33.722 33.721-1.695 44.674-65.754 44.662-67.443 0 0-18.594 15.127-33.721 33.721-33.721z"/><path d="m301.166 346.504h15v15h-15z"/><path d="m189.449 346.504h15v15h-15z"/></g></g></svg>